# MagicaVoxel @ Ephtracy

# group
o 

# material
mtllib SimpleTower.mtl
usemtl palette

# normals
vn -1 0 0
vn 1 0 0
vn 0 0 1
vn 0 0 -1
vn 0 -1 0
vn 0 1 0

# texcoords
vt 0.541016 0.5
vt 0.544922 0.5

# verts
v -1.3 4.9 1.3
v -1.3 4.9 0.5
v -1.3 4.9 -0.5
v -1.3 4.9 -1.3
v -1.3 5 1.3
v -1.3 5 0.5
v -1.3 5 -0.5
v -1.3 5 -1.3
v -1.3 5.1 1.3
v -1.3 5.1 0.5
v -1.3 5.1 -0.5
v -1.3 5.1 -1.3
v -1.3 5.2 1.3
v -1.3 5.2 0.5
v -1.3 5.2 -0.5
v -1.3 5.2 -1.3
v -1.1 0 1.1
v -1.1 0 1
v -1.1 0 0.9
v -1.1 0 0.8
v -1.1 0 0.5
v -1.1 0 0.3
v -1.1 0 -0.3
v -1.1 0 -0.5
v -1.1 0 -0.8
v -1.1 0 -0.9
v -1.1 0 -1
v -1.1 0 -1.1
v -1.1 0.2 0.3
v -1.1 0.2 -0.3
v -1.1 0.4 0.3
v -1.1 0.4 -0.3
v -1.1 0.8 0.3
v -1.1 0.8 -0.3
v -1.1 1 0.3
v -1.1 1 -0.3
v -1.1 1.4 0.3
v -1.1 1.4 -0.3
v -1.1 1.6 0.3
v -1.1 1.6 -0.3
v -1.1 2 0.3
v -1.1 2 -0.3
v -1.1 2.2 0.3
v -1.1 2.2 -0.3
v -1.1 2.6 0.3
v -1.1 2.6 -0.3
v -1.1 2.8 0.3
v -1.1 2.8 -0.3
v -1.1 3.2 0.3
v -1.1 3.2 -0.3
v -1.1 3.4 0.3
v -1.1 3.4 -0.3
v -1.1 3.8 0.3
v -1.1 3.8 -0.3
v -1.1 4 0.3
v -1.1 4 -0.3
v -1.1 4.4 0.3
v -1.1 4.4 -0.3
v -1.1 4.6 0.3
v -1.1 4.6 -0.3
v -1.1 4.9 1.1
v -1.1 4.9 1
v -1.1 4.9 0.9
v -1.1 4.9 0.8
v -1.1 4.9 0.5
v -1.1 4.9 -0.5
v -1.1 4.9 -0.8
v -1.1 4.9 -0.9
v -1.1 4.9 -1
v -1.1 4.9 -1.1
v -1.1 5 0.5
v -1.1 5 0.3
v -1.1 5 -0.3
v -1.1 5 -0.5
v -1 5 0.5
v -1 5 0.3
v -1 5 -0.3
v -1 5 -0.5
v -1 5.1 0.5
v -1 5.1 0.3
v -1 5.1 -0.3
v -1 5.1 -0.5
v -0.9 4.9 0.3
v -0.9 4.9 -0.3
v -0.9 5.1 0.3
v -0.9 5.1 -0.3
v 0.8 0 1.1
v 0.8 0 1
v 0.8 0 0.9
v 0.8 0 0.8
v 0.8 0 -0.8
v 0.8 0 -0.9
v 0.8 0 -1
v 0.8 0 -1.1
v 0.8 4.9 1.1
v 0.8 4.9 1
v 0.8 4.9 0.9
v 0.8 4.9 0.8
v 0.8 4.9 -0.8
v 0.8 4.9 -0.9
v 0.8 4.9 -1
v 0.8 4.9 -1.1
v 1.1 5.1 1.1
v 1.1 5.1 -1.1
v 1.1 5.2 1.1
v 1.1 5.2 -1.1
v -1.1 5.1 1.1
v -1.1 5.1 0.5
v -1.1 5.1 -0.5
v -1.1 5.1 -1.1
v -1.1 5.2 1.1
v -1.1 5.2 0.5
v -1.1 5.2 -0.5
v -1.1 5.2 -1.1
v -1 0.2 0.3
v -1 0.2 -0.3
v -1 0.4 0.3
v -1 0.4 -0.3
v -1 0.8 0.3
v -1 0.8 -0.3
v -1 1 0.3
v -1 1 -0.3
v -1 1.4 0.3
v -1 1.4 -0.3
v -1 1.6 0.3
v -1 1.6 -0.3
v -1 2 0.3
v -1 2 -0.3
v -1 2.2 0.3
v -1 2.2 -0.3
v -1 2.6 0.3
v -1 2.6 -0.3
v -1 2.8 0.3
v -1 2.8 -0.3
v -1 3.2 0.3
v -1 3.2 -0.3
v -1 3.4 0.3
v -1 3.4 -0.3
v -1 3.8 0.3
v -1 3.8 -0.3
v -1 4 0.3
v -1 4 -0.3
v -1 4.4 0.3
v -1 4.4 -0.3
v -1 4.6 0.3
v -1 4.6 -0.3
v -0.9 0 0.5
v -0.9 0 0.3
v -0.9 0 -0.3
v -0.9 0 -0.5
v -0.9 4.9 0.5
v -0.9 4.9 0.3
v -0.9 4.9 -0.3
v -0.9 4.9 -0.5
v -0.8 0 1.1
v -0.8 0 1
v -0.8 0 0.9
v -0.8 0 0.8
v -0.8 0 -0.8
v -0.8 0 -0.9
v -0.8 0 -1
v -0.8 0 -1.1
v -0.8 4.9 1.1
v -0.8 4.9 1
v -0.8 4.9 0.9
v -0.8 4.9 0.8
v -0.8 4.9 -0.8
v -0.8 4.9 -0.9
v -0.8 4.9 -1
v -0.8 4.9 -1.1
v 1.1 0 1.1
v 1.1 0 1
v 1.1 0 0.9
v 1.1 0 0.8
v 1.1 0 -0.8
v 1.1 0 -0.9
v 1.1 0 -1
v 1.1 0 -1.1
v 1.1 4.9 1.1
v 1.1 4.9 1
v 1.1 4.9 0.9
v 1.1 4.9 0.8
v 1.1 4.9 -0.8
v 1.1 4.9 -0.9
v 1.1 4.9 -1
v 1.1 4.9 -1.1
v 1.3 4.9 1.3
v 1.3 4.9 -1.3
v 1.3 5 1.3
v 1.3 5 -1.3
v 1.3 5.1 1.3
v 1.3 5.1 -1.3
v 1.3 5.2 1.3
v 1.3 5.2 -1.3
v -1.3 4.9 1.3
v -1.3 5 1.3
v -1.3 5.1 1.3
v -1.3 5.2 1.3
v 1.3 4.9 1.3
v 1.3 5 1.3
v 1.3 5.1 1.3
v 1.3 5.2 1.3
v -1.1 0 1.1
v -1.1 4.9 1.1
v -1 0 1.1
v -1 4.9 1.1
v -0.9 0 1.1
v -0.9 4.9 1.1
v -0.8 0 1.1
v -0.8 4.9 1.1
v 0.8 0 1.1
v 0.8 4.9 1.1
v 0.9 0 1.1
v 0.9 4.9 1.1
v 1 0 1.1
v 1 4.9 1.1
v 1.1 0 1.1
v 1.1 4.9 1.1
v -1.1 0 0.5
v -1.1 4.9 0.5
v -1 4.9 0.5
v -0.9 0 0.5
v -0.9 4.9 0.5
v -1.1 0 -0.3
v -1.1 0.2 -0.3
v -1.1 0.4 -0.3
v -1.1 0.8 -0.3
v -1.1 1 -0.3
v -1.1 1.4 -0.3
v -1.1 1.6 -0.3
v -1.1 2 -0.3
v -1.1 2.2 -0.3
v -1.1 2.6 -0.3
v -1.1 2.8 -0.3
v -1.1 3.2 -0.3
v -1.1 3.4 -0.3
v -1.1 3.8 -0.3
v -1.1 4 -0.3
v -1.1 4.4 -0.3
v -1.1 4.6 -0.3
v -1.1 5 -0.3
v -1 0.2 -0.3
v -1 0.4 -0.3
v -1 0.8 -0.3
v -1 1 -0.3
v -1 1.4 -0.3
v -1 1.6 -0.3
v -1 2 -0.3
v -1 2.2 -0.3
v -1 2.6 -0.3
v -1 2.8 -0.3
v -1 3.2 -0.3
v -1 3.4 -0.3
v -1 3.8 -0.3
v -1 4 -0.3
v -1 4.4 -0.3
v -1 4.6 -0.3
v -1 5 -0.3
v -1 5.1 -0.3
v -0.9 0 -0.3
v -0.9 4.9 -0.3
v -0.9 5.1 -0.3
v -1.3 4.9 -0.5
v -1.3 5 -0.5
v -1.3 5.1 -0.5
v -1.3 5.2 -0.5
v -1.2 5.1 -0.5
v -1.2 5.2 -0.5
v -1.1 4.9 -0.5
v -1.1 5 -0.5
v -1.1 5.1 -0.5
v -1.1 5.2 -0.5
v -1 5 -0.5
v -1 5.1 -0.5
v -1.1 0 -0.8
v -1.1 4.9 -0.8
v -1 0 -0.8
v -1 4.9 -0.8
v -0.9 0 -0.8
v -0.9 4.9 -0.8
v -0.8 0 -0.8
v -0.8 4.9 -0.8
v 0.8 0 -0.8
v 0.8 4.9 -0.8
v 0.9 0 -0.8
v 0.9 4.9 -0.8
v 1 0 -0.8
v 1 4.9 -0.8
v 1.1 0 -0.8
v 1.1 4.9 -0.8
v -1.1 5.1 -1.1
v -1.1 5.2 -1.1
v 1.1 5.1 -1.1
v 1.1 5.2 -1.1
v -1.1 5.1 1.1
v -1.1 5.2 1.1
v 1.1 5.1 1.1
v 1.1 5.2 1.1
v -1.1 0 0.8
v -1.1 4.9 0.8
v -1 0 0.8
v -1 4.9 0.8
v -0.9 0 0.8
v -0.9 4.9 0.8
v -0.8 0 0.8
v -0.8 4.9 0.8
v 0.8 0 0.8
v 0.8 4.9 0.8
v 0.9 0 0.8
v 0.9 4.9 0.8
v 1 0 0.8
v 1 4.9 0.8
v 1.1 0 0.8
v 1.1 4.9 0.8
v -1.3 4.9 0.5
v -1.3 5 0.5
v -1.3 5.1 0.5
v -1.3 5.2 0.5
v -1.2 5.1 0.5
v -1.2 5.2 0.5
v -1.1 4.9 0.5
v -1.1 5 0.5
v -1.1 5.1 0.5
v -1.1 5.2 0.5
v -1 5 0.5
v -1 5.1 0.5
v -1.1 0 0.3
v -1.1 0.2 0.3
v -1.1 0.4 0.3
v -1.1 0.8 0.3
v -1.1 1 0.3
v -1.1 1.4 0.3
v -1.1 1.6 0.3
v -1.1 2 0.3
v -1.1 2.2 0.3
v -1.1 2.6 0.3
v -1.1 2.8 0.3
v -1.1 3.2 0.3
v -1.1 3.4 0.3
v -1.1 3.8 0.3
v -1.1 4 0.3
v -1.1 4.4 0.3
v -1.1 4.6 0.3
v -1.1 5 0.3
v -1 0.2 0.3
v -1 0.4 0.3
v -1 0.8 0.3
v -1 1 0.3
v -1 1.4 0.3
v -1 1.6 0.3
v -1 2 0.3
v -1 2.2 0.3
v -1 2.6 0.3
v -1 2.8 0.3
v -1 3.2 0.3
v -1 3.4 0.3
v -1 3.8 0.3
v -1 4 0.3
v -1 4.4 0.3
v -1 4.6 0.3
v -1 5 0.3
v -1 5.1 0.3
v -0.9 0 0.3
v -0.9 4.9 0.3
v -0.9 5.1 0.3
v -1.1 0 -0.5
v -1.1 4.9 -0.5
v -1 4.9 -0.5
v -0.9 0 -0.5
v -0.9 4.9 -0.5
v -1.1 0 -1.1
v -1.1 4.9 -1.1
v -1 0 -1.1
v -1 4.9 -1.1
v -0.9 0 -1.1
v -0.9 4.9 -1.1
v -0.8 0 -1.1
v -0.8 4.9 -1.1
v 0.8 0 -1.1
v 0.8 4.9 -1.1
v 0.9 0 -1.1
v 0.9 4.9 -1.1
v 1 0 -1.1
v 1 4.9 -1.1
v 1.1 0 -1.1
v 1.1 4.9 -1.1
v -1.3 4.9 -1.3
v -1.3 5 -1.3
v -1.3 5.1 -1.3
v -1.3 5.2 -1.3
v 1.3 4.9 -1.3
v 1.3 5 -1.3
v 1.3 5.1 -1.3
v 1.3 5.2 -1.3
v -1.1 0 1.1
v -1 0 1.1
v -0.9 0 1.1
v -0.8 0 1.1
v 0.8 0 1.1
v 0.9 0 1.1
v 1 0 1.1
v 1.1 0 1.1
v -1.1 0 1
v -1 0 1
v -0.9 0 1
v -0.8 0 1
v 0.8 0 1
v 0.9 0 1
v 1 0 1
v 1.1 0 1
v -1.1 0 0.9
v -1 0 0.9
v -0.9 0 0.9
v -0.8 0 0.9
v 0.8 0 0.9
v 0.9 0 0.9
v 1 0 0.9
v 1.1 0 0.9
v -1.1 0 0.8
v -1 0 0.8
v -0.9 0 0.8
v -0.8 0 0.8
v 0.8 0 0.8
v 0.9 0 0.8
v 1 0 0.8
v 1.1 0 0.8
v -1.1 0 0.5
v -0.9 0 0.5
v -1.1 0 0.3
v -0.9 0 0.3
v -1.1 0 -0.3
v -0.9 0 -0.3
v -1.1 0 -0.5
v -0.9 0 -0.5
v -1.1 0 -0.8
v -1 0 -0.8
v -0.9 0 -0.8
v -0.8 0 -0.8
v 0.8 0 -0.8
v 0.9 0 -0.8
v 1 0 -0.8
v 1.1 0 -0.8
v -1.1 0 -0.9
v -1 0 -0.9
v -0.9 0 -0.9
v -0.8 0 -0.9
v 0.8 0 -0.9
v 0.9 0 -0.9
v 1 0 -0.9
v 1.1 0 -0.9
v -1.1 0 -1
v -1 0 -1
v -0.9 0 -1
v -0.8 0 -1
v 0.8 0 -1
v 0.9 0 -1
v 1 0 -1
v 1.1 0 -1
v -1.1 0 -1.1
v -1 0 -1.1
v -0.9 0 -1.1
v -0.8 0 -1.1
v 0.8 0 -1.1
v 0.9 0 -1.1
v 1 0 -1.1
v 1.1 0 -1.1
v -1.1 0.2 0.3
v -1 0.2 0.3
v -1.1 0.2 -0.3
v -1 0.2 -0.3
v -1.1 0.8 0.3
v -1 0.8 0.3
v -1.1 0.8 -0.3
v -1 0.8 -0.3
v -1.1 1.4 0.3
v -1 1.4 0.3
v -1.1 1.4 -0.3
v -1 1.4 -0.3
v -1.1 2 0.3
v -1 2 0.3
v -1.1 2 -0.3
v -1 2 -0.3
v -1.1 2.6 0.3
v -1 2.6 0.3
v -1.1 2.6 -0.3
v -1 2.6 -0.3
v -1.1 3.2 0.3
v -1 3.2 0.3
v -1.1 3.2 -0.3
v -1 3.2 -0.3
v -1.1 3.8 0.3
v -1 3.8 0.3
v -1.1 3.8 -0.3
v -1 3.8 -0.3
v -1.1 4.4 0.3
v -1 4.4 0.3
v -1.1 4.4 -0.3
v -1 4.4 -0.3
v -1.3 4.9 1.3
v 1.3 4.9 1.3
v -1.2 4.9 1.2
v 1.2 4.9 1.2
v -1.1 4.9 1.1
v -1 4.9 1.1
v -0.9 4.9 1.1
v -0.8 4.9 1.1
v 0.8 4.9 1.1
v 0.9 4.9 1.1
v 1 4.9 1.1
v 1.1 4.9 1.1
v -1.1 4.9 1
v -0.8 4.9 1
v 0.8 4.9 1
v 1.1 4.9 1
v -1.1 4.9 0.9
v -0.8 4.9 0.9
v 0.8 4.9 0.9
v 1.1 4.9 0.9
v -1.1 4.9 0.8
v -1 4.9 0.8
v -0.9 4.9 0.8
v -0.8 4.9 0.8
v 0.8 4.9 0.8
v 0.9 4.9 0.8
v 1 4.9 0.8
v 1.1 4.9 0.8
v -1.2 4.9 0.6
v -1 4.9 0.6
v -1.3 4.9 0.5
v -1.1 4.9 0.5
v -1 4.9 0.5
v -0.9 4.9 0.5
v -0.9 4.9 0.3
v -0.9 4.9 -0.3
v -1.3 4.9 -0.5
v -1.1 4.9 -0.5
v -1 4.9 -0.5
v -0.9 4.9 -0.5
v -1.2 4.9 -0.6
v -1 4.9 -0.6
v -1.1 4.9 -0.8
v -1 4.9 -0.8
v -0.9 4.9 -0.8
v -0.8 4.9 -0.8
v 0.8 4.9 -0.8
v 0.9 4.9 -0.8
v 1 4.9 -0.8
v 1.1 4.9 -0.8
v -1.1 4.9 -0.9
v -0.8 4.9 -0.9
v 0.8 4.9 -0.9
v 1.1 4.9 -0.9
v -1.1 4.9 -1
v -0.8 4.9 -1
v 0.8 4.9 -1
v 1.1 4.9 -1
v -1.1 4.9 -1.1
v -1 4.9 -1.1
v -0.9 4.9 -1.1
v -0.8 4.9 -1.1
v 0.8 4.9 -1.1
v 0.9 4.9 -1.1
v 1 4.9 -1.1
v 1.1 4.9 -1.1
v -1.2 4.9 -1.2
v 1.2 4.9 -1.2
v -1.3 4.9 -1.3
v 1.3 4.9 -1.3
v -1.1 0.4 0.3
v -1 0.4 0.3
v -1.1 0.4 -0.3
v -1 0.4 -0.3
v -1.1 1 0.3
v -1 1 0.3
v -1.1 1 -0.3
v -1 1 -0.3
v -1.1 1.6 0.3
v -1 1.6 0.3
v -1.1 1.6 -0.3
v -1 1.6 -0.3
v -1.1 2.2 0.3
v -1 2.2 0.3
v -1.1 2.2 -0.3
v -1 2.2 -0.3
v -1.1 2.8 0.3
v -1 2.8 0.3
v -1.1 2.8 -0.3
v -1 2.8 -0.3
v -1.1 3.4 0.3
v -1 3.4 0.3
v -1.1 3.4 -0.3
v -1 3.4 -0.3
v -1.1 4 0.3
v -1 4 0.3
v -1.1 4 -0.3
v -1 4 -0.3
v -1.1 4.6 0.3
v -1 4.6 0.3
v -1.1 4.6 -0.3
v -1 4.6 -0.3
v -1.1 5 0.5
v -1 5 0.5
v -1.1 5 0.3
v -1 5 0.3
v -1.1 5 -0.3
v -1 5 -0.3
v -1.1 5 -0.5
v -1 5 -0.5
v -1.1 5.1 1.1
v 1.1 5.1 1.1
v -1.1 5.1 0.5
v -1 5.1 0.5
v -1 5.1 0.3
v -0.9 5.1 0.3
v -1 5.1 -0.3
v -0.9 5.1 -0.3
v -1.1 5.1 -0.5
v -1 5.1 -0.5
v -1.1 5.1 -1.1
v 1.1 5.1 -1.1
v -1.3 5.2 1.3
v 1.3 5.2 1.3
v -1.2 5.2 1.2
v 1.2 5.2 1.2
v -1.1 5.2 1.1
v 1.1 5.2 1.1
v -1.3 5.2 0.5
v -1.2 5.2 0.5
v -1.1 5.2 0.5
v -1.3 5.2 -0.5
v -1.2 5.2 -0.5
v -1.1 5.2 -0.5
v -1.1 5.2 -1.1
v 1.1 5.2 -1.1
v -1.2 5.2 -1.2
v 1.2 5.2 -1.2
v -1.3 5.2 -1.3
v 1.3 5.2 -1.3

# faces
f 5/1/1 2/1/1 1/1/1
f 6/1/1 2/1/1 5/1/1
f 7/1/1 4/1/1 3/1/1
f 8/1/1 4/1/1 7/1/1
f 9/2/1 6/2/1 5/2/1
f 10/2/1 6/2/1 9/2/1
f 11/2/1 8/2/1 7/2/1
f 12/2/1 8/2/1 11/2/1
f 13/1/1 10/1/1 9/1/1
f 14/1/1 10/1/1 13/1/1
f 15/1/1 12/1/1 11/1/1
f 16/1/1 12/1/1 15/1/1
f 29/2/1 22/2/1 21/2/1
f 30/2/1 24/2/1 23/2/1
f 31/2/1 29/2/1 21/2/1
f 31/2/1 30/2/1 29/2/1
f 32/2/1 24/2/1 30/2/1
f 32/2/1 30/2/1 31/2/1
f 33/2/1 31/2/1 21/2/1
f 34/2/1 24/2/1 32/2/1
f 35/2/1 33/2/1 21/2/1
f 35/2/1 34/2/1 33/2/1
f 36/2/1 24/2/1 34/2/1
f 36/2/1 34/2/1 35/2/1
f 37/2/1 35/2/1 21/2/1
f 38/2/1 24/2/1 36/2/1
f 39/2/1 37/2/1 21/2/1
f 39/2/1 38/2/1 37/2/1
f 40/2/1 24/2/1 38/2/1
f 40/2/1 38/2/1 39/2/1
f 41/2/1 39/2/1 21/2/1
f 42/2/1 24/2/1 40/2/1
f 43/2/1 41/2/1 21/2/1
f 43/2/1 42/2/1 41/2/1
f 44/2/1 24/2/1 42/2/1
f 44/2/1 42/2/1 43/2/1
f 45/2/1 43/2/1 21/2/1
f 46/2/1 24/2/1 44/2/1
f 47/2/1 45/2/1 21/2/1
f 47/2/1 46/2/1 45/2/1
f 48/2/1 24/2/1 46/2/1
f 48/2/1 46/2/1 47/2/1
f 49/2/1 47/2/1 21/2/1
f 50/2/1 24/2/1 48/2/1
f 51/2/1 49/2/1 21/2/1
f 51/2/1 50/2/1 49/2/1
f 52/2/1 24/2/1 50/2/1
f 52/2/1 50/2/1 51/2/1
f 53/2/1 51/2/1 21/2/1
f 54/2/1 24/2/1 52/2/1
f 55/2/1 53/2/1 21/2/1
f 55/2/1 54/2/1 53/2/1
f 56/2/1 24/2/1 54/2/1
f 56/2/1 54/2/1 55/2/1
f 57/2/1 55/2/1 21/2/1
f 58/2/1 24/2/1 56/2/1
f 59/2/1 57/2/1 21/2/1
f 59/2/1 58/2/1 57/2/1
f 60/2/1 24/2/1 58/2/1
f 60/2/1 58/2/1 59/2/1
f 61/1/1 18/1/1 17/1/1
f 62/2/1 19/2/1 18/2/1
f 62/1/1 18/1/1 61/1/1
f 63/1/1 20/1/1 19/1/1
f 63/2/1 19/2/1 62/2/1
f 64/1/1 20/1/1 63/1/1
f 65/2/1 59/2/1 21/2/1
f 66/2/1 24/2/1 60/2/1
f 67/1/1 26/1/1 25/1/1
f 68/2/1 27/2/1 26/2/1
f 68/1/1 26/1/1 67/1/1
f 69/1/1 28/1/1 27/1/1
f 69/2/1 27/2/1 68/2/1
f 70/1/1 28/1/1 69/1/1
f 71/2/1 59/2/1 65/2/1
f 72/2/1 59/2/1 71/2/1
f 73/2/1 66/2/1 60/2/1
f 74/2/1 66/2/1 73/2/1
f 79/2/1 76/2/1 75/2/1
f 80/2/1 76/2/1 79/2/1
f 81/2/1 78/2/1 77/2/1
f 82/2/1 78/2/1 81/2/1
f 85/2/1 84/2/1 83/2/1
f 86/2/1 84/2/1 85/2/1
f 95/1/1 88/1/1 87/1/1
f 96/2/1 89/2/1 88/2/1
f 96/1/1 88/1/1 95/1/1
f 97/1/1 90/1/1 89/1/1
f 97/2/1 89/2/1 96/2/1
f 98/1/1 90/1/1 97/1/1
f 99/1/1 92/1/1 91/1/1
f 100/2/1 93/2/1 92/2/1
f 100/1/1 92/1/1 99/1/1
f 101/1/1 94/1/1 93/1/1
f 101/2/1 93/2/1 100/2/1
f 102/1/1 94/1/1 101/1/1
f 105/2/1 104/2/1 103/2/1
f 106/2/1 104/2/1 105/2/1
f 107/2/2 108/2/2 111/2/2
f 111/2/2 108/2/2 112/2/2
f 109/2/2 110/2/2 113/2/2
f 113/2/2 110/2/2 114/2/2
f 115/2/2 116/2/2 117/2/2
f 117/2/2 116/2/2 118/2/2
f 119/2/2 120/2/2 121/2/2
f 121/2/2 120/2/2 122/2/2
f 123/2/2 124/2/2 125/2/2
f 125/2/2 124/2/2 126/2/2
f 127/2/2 128/2/2 129/2/2
f 129/2/2 128/2/2 130/2/2
f 131/2/2 132/2/2 133/2/2
f 133/2/2 132/2/2 134/2/2
f 135/2/2 136/2/2 137/2/2
f 137/2/2 136/2/2 138/2/2
f 139/2/2 140/2/2 141/2/2
f 141/2/2 140/2/2 142/2/2
f 143/2/2 144/2/2 145/2/2
f 145/2/2 144/2/2 146/2/2
f 147/2/2 148/2/2 151/2/2
f 151/2/2 148/2/2 152/2/2
f 149/2/2 150/2/2 153/2/2
f 153/2/2 150/2/2 154/2/2
f 155/1/2 156/1/2 163/1/2
f 156/2/2 157/2/2 164/2/2
f 163/1/2 156/1/2 164/1/2
f 157/1/2 158/1/2 165/1/2
f 164/2/2 157/2/2 165/2/2
f 165/1/2 158/1/2 166/1/2
f 159/1/2 160/1/2 167/1/2
f 160/2/2 161/2/2 168/2/2
f 167/1/2 160/1/2 168/1/2
f 161/1/2 162/1/2 169/1/2
f 168/2/2 161/2/2 169/2/2
f 169/1/2 162/1/2 170/1/2
f 171/1/2 172/1/2 179/1/2
f 172/2/2 173/2/2 180/2/2
f 179/1/2 172/1/2 180/1/2
f 173/1/2 174/1/2 181/1/2
f 180/2/2 173/2/2 181/2/2
f 181/1/2 174/1/2 182/1/2
f 175/1/2 176/1/2 183/1/2
f 176/2/2 177/2/2 184/2/2
f 183/1/2 176/1/2 184/1/2
f 177/1/2 178/1/2 185/1/2
f 184/2/2 177/2/2 185/2/2
f 185/1/2 178/1/2 186/1/2
f 187/1/2 188/1/2 189/1/2
f 189/1/2 188/1/2 190/1/2
f 189/2/2 190/2/2 191/2/2
f 191/2/2 190/2/2 192/2/2
f 191/1/2 192/1/2 193/1/2
f 193/1/2 192/1/2 194/1/2
f 199/1/3 196/1/3 195/1/3
f 200/2/3 197/2/3 196/2/3
f 200/1/3 196/1/3 199/1/3
f 201/1/3 198/1/3 197/1/3
f 201/2/3 197/2/3 200/2/3
f 202/1/3 198/1/3 201/1/3
f 205/1/3 204/1/3 203/1/3
f 206/1/3 204/1/3 205/1/3
f 207/2/3 206/2/3 205/2/3
f 208/2/3 206/2/3 207/2/3
f 209/1/3 208/1/3 207/1/3
f 210/1/3 208/1/3 209/1/3
f 213/1/3 212/1/3 211/1/3
f 214/1/3 212/1/3 213/1/3
f 215/2/3 214/2/3 213/2/3
f 216/2/3 214/2/3 215/2/3
f 217/1/3 216/1/3 215/1/3
f 218/1/3 216/1/3 217/1/3
f 221/2/3 220/2/3 219/2/3
f 222/2/3 221/2/3 219/2/3
f 223/2/3 221/2/3 222/2/3
f 242/2/3 225/2/3 224/2/3
f 243/2/3 227/2/3 226/2/3
f 244/2/3 227/2/3 243/2/3
f 245/2/3 229/2/3 228/2/3
f 246/2/3 229/2/3 245/2/3
f 247/2/3 231/2/3 230/2/3
f 248/2/3 231/2/3 247/2/3
f 249/2/3 233/2/3 232/2/3
f 250/2/3 233/2/3 249/2/3
f 251/2/3 235/2/3 234/2/3
f 252/2/3 235/2/3 251/2/3
f 253/2/3 237/2/3 236/2/3
f 254/2/3 237/2/3 253/2/3
f 255/2/3 239/2/3 238/2/3
f 256/2/3 239/2/3 255/2/3
f 257/2/3 241/2/3 240/2/3
f 258/2/3 241/2/3 257/2/3
f 260/2/3 256/2/3 255/2/3
f 260/2/3 259/2/3 258/2/3
f 260/2/3 258/2/3 257/2/3
f 260/2/3 257/2/3 256/2/3
f 260/2/3 242/2/3 224/2/3
f 260/2/3 255/2/3 254/2/3
f 260/2/3 244/2/3 243/2/3
f 260/2/3 253/2/3 252/2/3
f 260/2/3 246/2/3 245/2/3
f 260/2/3 251/2/3 250/2/3
f 260/2/3 248/2/3 247/2/3
f 260/2/3 249/2/3 248/2/3
f 260/2/3 250/2/3 249/2/3
f 260/2/3 247/2/3 246/2/3
f 260/2/3 252/2/3 251/2/3
f 260/2/3 245/2/3 244/2/3
f 260/2/3 254/2/3 253/2/3
f 260/2/3 243/2/3 242/2/3
f 261/2/3 259/2/3 260/2/3
f 262/2/3 259/2/3 261/2/3
f 267/2/3 265/2/3 264/2/3
f 267/1/3 266/1/3 265/1/3
f 268/1/3 266/1/3 267/1/3
f 269/1/3 264/1/3 263/1/3
f 270/2/3 267/2/3 264/2/3
f 270/1/3 264/1/3 269/1/3
f 270/2/3 268/2/3 267/2/3
f 271/2/3 268/2/3 270/2/3
f 272/2/3 268/2/3 271/2/3
f 273/2/3 271/2/3 270/2/3
f 274/2/3 271/2/3 273/2/3
f 277/1/3 276/1/3 275/1/3
f 278/1/3 276/1/3 277/1/3
f 279/2/3 278/2/3 277/2/3
f 280/2/3 278/2/3 279/2/3
f 281/1/3 280/1/3 279/1/3
f 282/1/3 280/1/3 281/1/3
f 285/1/3 284/1/3 283/1/3
f 286/1/3 284/1/3 285/1/3
f 287/2/3 286/2/3 285/2/3
f 288/2/3 286/2/3 287/2/3
f 289/1/3 288/1/3 287/1/3
f 290/1/3 288/1/3 289/1/3
f 293/2/3 292/2/3 291/2/3
f 294/2/3 292/2/3 293/2/3
f 295/2/4 296/2/4 297/2/4
f 297/2/4 296/2/4 298/2/4
f 299/1/4 300/1/4 301/1/4
f 301/1/4 300/1/4 302/1/4
f 301/2/4 302/2/4 303/2/4
f 303/2/4 302/2/4 304/2/4
f 303/1/4 304/1/4 305/1/4
f 305/1/4 304/1/4 306/1/4
f 307/1/4 308/1/4 309/1/4
f 309/1/4 308/1/4 310/1/4
f 309/2/4 310/2/4 311/2/4
f 311/2/4 310/2/4 312/2/4
f 311/1/4 312/1/4 313/1/4
f 313/1/4 312/1/4 314/1/4
f 316/2/4 317/2/4 319/2/4
f 317/1/4 318/1/4 319/1/4
f 319/1/4 318/1/4 320/1/4
f 315/1/4 316/1/4 321/1/4
f 316/2/4 319/2/4 322/2/4
f 321/1/4 316/1/4 322/1/4
f 319/2/4 320/2/4 322/2/4
f 322/2/4 320/2/4 323/2/4
f 323/2/4 320/2/4 324/2/4
f 322/2/4 323/2/4 325/2/4
f 325/2/4 323/2/4 326/2/4
f 327/2/4 328/2/4 345/2/4
f 329/2/4 330/2/4 346/2/4
f 346/2/4 330/2/4 347/2/4
f 331/2/4 332/2/4 348/2/4
f 348/2/4 332/2/4 349/2/4
f 333/2/4 334/2/4 350/2/4
f 350/2/4 334/2/4 351/2/4
f 335/2/4 336/2/4 352/2/4
f 352/2/4 336/2/4 353/2/4
f 337/2/4 338/2/4 354/2/4
f 354/2/4 338/2/4 355/2/4
f 339/2/4 340/2/4 356/2/4
f 356/2/4 340/2/4 357/2/4
f 341/2/4 342/2/4 358/2/4
f 358/2/4 342/2/4 359/2/4
f 343/2/4 344/2/4 360/2/4
f 360/2/4 344/2/4 361/2/4
f 358/2/4 359/2/4 363/2/4
f 361/2/4 362/2/4 363/2/4
f 360/2/4 361/2/4 363/2/4
f 359/2/4 360/2/4 363/2/4
f 327/2/4 345/2/4 363/2/4
f 357/2/4 358/2/4 363/2/4
f 346/2/4 347/2/4 363/2/4
f 355/2/4 356/2/4 363/2/4
f 348/2/4 349/2/4 363/2/4
f 353/2/4 354/2/4 363/2/4
f 350/2/4 351/2/4 363/2/4
f 351/2/4 352/2/4 363/2/4
f 352/2/4 353/2/4 363/2/4
f 349/2/4 350/2/4 363/2/4
f 354/2/4 355/2/4 363/2/4
f 347/2/4 348/2/4 363/2/4
f 356/2/4 357/2/4 363/2/4
f 345/2/4 346/2/4 363/2/4
f 363/2/4 362/2/4 364/2/4
f 364/2/4 362/2/4 365/2/4
f 366/2/4 367/2/4 368/2/4
f 366/2/4 368/2/4 369/2/4
f 369/2/4 368/2/4 370/2/4
f 371/1/4 372/1/4 373/1/4
f 373/1/4 372/1/4 374/1/4
f 373/2/4 374/2/4 375/2/4
f 375/2/4 374/2/4 376/2/4
f 375/1/4 376/1/4 377/1/4
f 377/1/4 376/1/4 378/1/4
f 379/1/4 380/1/4 381/1/4
f 381/1/4 380/1/4 382/1/4
f 381/2/4 382/2/4 383/2/4
f 383/2/4 382/2/4 384/2/4
f 383/1/4 384/1/4 385/1/4
f 385/1/4 384/1/4 386/1/4
f 387/1/4 388/1/4 391/1/4
f 388/2/4 389/2/4 392/2/4
f 391/1/4 388/1/4 392/1/4
f 389/1/4 390/1/4 393/1/4
f 392/2/4 389/2/4 393/2/4
f 393/1/4 390/1/4 394/1/4
f 403/1/5 396/1/5 395/1/5
f 404/2/5 397/2/5 396/2/5
f 404/1/5 396/1/5 403/1/5
f 405/1/5 398/1/5 397/1/5
f 405/2/5 397/2/5 404/2/5
f 406/1/5 398/1/5 405/1/5
f 407/1/5 400/1/5 399/1/5
f 408/2/5 401/2/5 400/2/5
f 408/1/5 400/1/5 407/1/5
f 409/1/5 402/1/5 401/1/5
f 409/2/5 401/2/5 408/2/5
f 410/1/5 402/1/5 409/1/5
f 411/2/5 404/2/5 403/2/5
f 411/2/5 406/2/5 405/2/5
f 411/2/5 405/2/5 404/2/5
f 412/2/5 406/2/5 411/2/5
f 413/2/5 406/2/5 412/2/5
f 414/2/5 406/2/5 413/2/5
f 415/2/5 408/2/5 407/2/5
f 415/2/5 410/2/5 409/2/5
f 415/2/5 409/2/5 408/2/5
f 416/2/5 410/2/5 415/2/5
f 417/2/5 410/2/5 416/2/5
f 418/2/5 410/2/5 417/2/5
f 419/1/5 412/1/5 411/1/5
f 420/2/5 413/2/5 412/2/5
f 420/1/5 412/1/5 419/1/5
f 421/1/5 414/1/5 413/1/5
f 421/2/5 413/2/5 420/2/5
f 422/1/5 414/1/5 421/1/5
f 423/1/5 416/1/5 415/1/5
f 424/2/5 417/2/5 416/2/5
f 424/1/5 416/1/5 423/1/5
f 425/1/5 418/1/5 417/1/5
f 425/2/5 417/2/5 424/2/5
f 426/1/5 418/1/5 425/1/5
f 429/2/5 428/2/5 427/2/5
f 430/2/5 428/2/5 429/2/5
f 433/2/5 432/2/5 431/2/5
f 434/2/5 432/2/5 433/2/5
f 443/1/5 436/1/5 435/1/5
f 444/2/5 437/2/5 436/2/5
f 444/1/5 436/1/5 443/1/5
f 445/1/5 438/1/5 437/1/5
f 445/2/5 437/2/5 444/2/5
f 446/1/5 438/1/5 445/1/5
f 447/1/5 440/1/5 439/1/5
f 448/2/5 441/2/5 440/2/5
f 448/1/5 440/1/5 447/1/5
f 449/1/5 442/1/5 441/1/5
f 449/2/5 441/2/5 448/2/5
f 450/1/5 442/1/5 449/1/5
f 451/2/5 444/2/5 443/2/5
f 451/2/5 446/2/5 445/2/5
f 451/2/5 445/2/5 444/2/5
f 452/2/5 446/2/5 451/2/5
f 453/2/5 446/2/5 452/2/5
f 454/2/5 446/2/5 453/2/5
f 455/2/5 448/2/5 447/2/5
f 455/2/5 450/2/5 449/2/5
f 455/2/5 449/2/5 448/2/5
f 456/2/5 450/2/5 455/2/5
f 457/2/5 450/2/5 456/2/5
f 458/2/5 450/2/5 457/2/5
f 459/1/5 452/1/5 451/1/5
f 460/2/5 453/2/5 452/2/5
f 460/1/5 452/1/5 459/1/5
f 461/1/5 454/1/5 453/1/5
f 461/2/5 453/2/5 460/2/5
f 462/1/5 454/1/5 461/1/5
f 463/1/5 456/1/5 455/1/5
f 464/2/5 457/2/5 456/2/5
f 464/1/5 456/1/5 463/1/5
f 465/1/5 458/1/5 457/1/5
f 465/2/5 457/2/5 464/2/5
f 466/1/5 458/1/5 465/1/5
f 469/2/5 468/2/5 467/2/5
f 470/2/5 468/2/5 469/2/5
f 473/2/5 472/2/5 471/2/5
f 474/2/5 472/2/5 473/2/5
f 477/2/5 476/2/5 475/2/5
f 478/2/5 476/2/5 477/2/5
f 481/2/5 480/2/5 479/2/5
f 482/2/5 480/2/5 481/2/5
f 485/2/5 484/2/5 483/2/5
f 486/2/5 484/2/5 485/2/5
f 489/2/5 488/2/5 487/2/5
f 490/2/5 488/2/5 489/2/5
f 493/2/5 492/2/5 491/2/5
f 494/2/5 492/2/5 493/2/5
f 497/2/5 496/2/5 495/2/5
f 498/2/5 496/2/5 497/2/5
f 501/1/5 500/1/5 499/1/5
f 502/1/5 500/1/5 501/1/5
f 503/2/5 502/2/5 501/2/5
f 504/2/5 502/2/5 503/2/5
f 505/2/5 502/2/5 504/2/5
f 506/2/5 502/2/5 505/2/5
f 507/2/5 502/2/5 506/2/5
f 508/2/5 502/2/5 507/2/5
f 509/2/5 502/2/5 508/2/5
f 510/2/5 502/2/5 509/2/5
f 511/2/5 503/2/5 501/2/5
f 512/2/5 507/2/5 506/2/5
f 513/2/5 507/2/5 512/2/5
f 514/2/5 502/2/5 510/2/5
f 515/2/5 511/2/5 501/2/5
f 516/2/5 513/2/5 512/2/5
f 517/2/5 513/2/5 516/2/5
f 518/2/5 502/2/5 514/2/5
f 519/2/5 515/2/5 501/2/5
f 522/2/5 517/2/5 516/2/5
f 523/2/5 517/2/5 522/2/5
f 526/2/5 502/2/5 518/2/5
f 527/1/5 501/1/5 499/1/5
f 527/2/5 526/2/5 525/2/5
f 527/2/5 525/2/5 524/2/5
f 527/2/5 521/2/5 520/2/5
f 527/2/5 524/2/5 523/2/5
f 527/2/5 523/2/5 522/2/5
f 527/2/5 522/2/5 521/2/5
f 527/2/5 519/2/5 501/2/5
f 527/2/5 520/2/5 519/2/5
f 528/2/5 526/2/5 527/2/5
f 529/1/5 527/1/5 499/1/5
f 529/1/5 528/1/5 527/1/5
f 530/1/5 528/1/5 529/1/5
f 531/2/5 526/2/5 528/2/5
f 531/1/5 528/1/5 530/1/5
f 532/2/5 526/2/5 531/2/5
f 533/2/5 526/2/5 532/2/5
f 534/2/5 526/2/5 533/2/5
f 538/2/5 526/2/5 534/2/5
f 539/1/5 537/1/5 536/1/5
f 539/1/5 536/1/5 535/1/5
f 540/2/5 538/2/5 537/2/5
f 540/1/5 537/1/5 539/1/5
f 541/2/5 540/2/5 539/2/5
f 542/2/5 538/2/5 540/2/5
f 542/2/5 540/2/5 541/2/5
f 543/2/5 526/2/5 538/2/5
f 543/2/5 538/2/5 542/2/5
f 544/2/5 526/2/5 543/2/5
f 545/2/5 526/2/5 544/2/5
f 546/2/5 526/2/5 545/2/5
f 547/2/5 526/2/5 546/2/5
f 548/2/5 502/2/5 526/2/5
f 548/2/5 526/2/5 547/2/5
f 549/2/5 541/2/5 539/2/5
f 550/2/5 545/2/5 544/2/5
f 551/2/5 545/2/5 550/2/5
f 552/2/5 502/2/5 548/2/5
f 553/2/5 549/2/5 539/2/5
f 554/2/5 551/2/5 550/2/5
f 555/2/5 551/2/5 554/2/5
f 556/2/5 502/2/5 552/2/5
f 557/2/5 553/2/5 539/2/5
f 560/2/5 555/2/5 554/2/5
f 561/2/5 555/2/5 560/2/5
f 564/2/5 502/2/5 556/2/5
f 565/2/5 563/2/5 562/2/5
f 565/2/5 564/2/5 563/2/5
f 565/1/5 539/1/5 535/1/5
f 565/2/5 559/2/5 558/2/5
f 565/2/5 562/2/5 561/2/5
f 565/2/5 561/2/5 560/2/5
f 565/2/5 560/2/5 559/2/5
f 565/2/5 557/2/5 539/2/5
f 565/2/5 558/2/5 557/2/5
f 566/2/5 502/2/5 564/2/5
f 566/2/5 564/2/5 565/2/5
f 566/1/5 500/1/5 502/1/5
f 567/1/5 565/1/5 535/1/5
f 567/1/5 566/1/5 565/1/5
f 568/1/5 500/1/5 566/1/5
f 568/1/5 566/1/5 567/1/5
f 569/2/6 570/2/6 571/2/6
f 571/2/6 570/2/6 572/2/6
f 573/2/6 574/2/6 575/2/6
f 575/2/6 574/2/6 576/2/6
f 577/2/6 578/2/6 579/2/6
f 579/2/6 578/2/6 580/2/6
f 581/2/6 582/2/6 583/2/6
f 583/2/6 582/2/6 584/2/6
f 585/2/6 586/2/6 587/2/6
f 587/2/6 586/2/6 588/2/6
f 589/2/6 590/2/6 591/2/6
f 591/2/6 590/2/6 592/2/6
f 593/2/6 594/2/6 595/2/6
f 595/2/6 594/2/6 596/2/6
f 597/2/6 598/2/6 599/2/6
f 599/2/6 598/2/6 600/2/6
f 601/2/6 602/2/6 603/2/6
f 603/2/6 602/2/6 604/2/6
f 605/2/6 606/2/6 607/2/6
f 607/2/6 606/2/6 608/2/6
f 609/2/6 610/2/6 611/2/6
f 611/2/6 610/2/6 612/2/6
f 612/2/6 610/2/6 613/2/6
f 613/2/6 610/2/6 614/2/6
f 614/2/6 610/2/6 616/2/6
f 615/2/6 616/2/6 618/2/6
f 617/2/6 618/2/6 619/2/6
f 616/2/6 610/2/6 620/2/6
f 619/2/6 618/2/6 620/2/6
f 618/2/6 616/2/6 620/2/6
f 621/1/6 622/1/6 623/1/6
f 623/1/6 622/1/6 624/1/6
f 623/2/6 624/2/6 625/2/6
f 625/2/6 624/2/6 626/2/6
f 621/1/6 623/1/6 627/1/6
f 623/2/6 625/2/6 628/2/6
f 627/1/6 623/1/6 628/1/6
f 628/2/6 625/2/6 629/2/6
f 631/2/6 632/2/6 633/2/6
f 626/2/6 624/2/6 634/2/6
f 631/2/6 633/2/6 635/2/6
f 633/2/6 634/2/6 635/2/6
f 630/1/6 631/1/6 635/1/6
f 634/2/6 624/2/6 636/2/6
f 635/2/6 634/2/6 636/2/6
f 624/1/6 622/1/6 636/1/6
f 630/1/6 635/1/6 637/1/6
f 635/1/6 636/1/6 637/1/6
f 636/1/6 622/1/6 638/1/6
f 637/1/6 636/1/6 638/1/6
